<svg xmlns="http://www.w3.org/2000/svg" viewBox="0 0 498.82 107.91"><defs><style>.cls-1,.cls-7{fill:#ff8e0c;}.cls-2{fill:#fee13d;}.cls-3{fill:#fac53b;}.cls-4{font-size:45px;fill:#f8faf9;font-family:BebasNeue, Bebas Neue;}.cls-5{letter-spacing:-0.02em;}.cls-6{letter-spacing:-0.05em;}.cls-7{font-size:11.99px;font-family:OpenSans-Semibold, Open Sans;font-weight:600;letter-spacing:0.19em;}.cls-8{fill:#faac27;}.cls-9{fill:#ededed;}</style></defs><g id="Layer_2" data-name="Layer 2"><g id="OBJECTS"><rect class="cls-1" y="7.91" width="498.82" height="100" rx="16.57" transform="translate(498.82 115.82) rotate(180)"/><rect class="cls-2" width="498.82" height="100" rx="16.57" transform="translate(498.82 100) rotate(180)"/><rect class="cls-3" y="4.16" width="498.82" height="100" rx="16.57" transform="translate(498.82 108.33) rotate(180)"/><text class="cls-4" transform="translate(150.78 61.67)">BOOK <tspan class="cls-5" x="79.51" y="0">Y</tspan><tspan x="96.66" y="0">OUR CONSU</tspan><tspan class="cls-6" x="246.6" y="0">L</tspan><tspan x="259.6" y="0">TED</tspan></text><text class="cls-7" transform="translate(181.18 78.69)">We will contact you shortly</text><rect class="cls-8" x="124.21" y="6.99" width="1.49" height="92.57"/><rect class="cls-2" x="125.7" y="6.99" width="1.49" height="92.57"/><circle class="cls-1" cx="57.76" cy="50.9" r="35.78" transform="translate(-5.21 95.19) rotate(-76.51)"/><circle class="cls-2" cx="57.76" cy="55.66" r="35.78" transform="translate(-9.84 98.84) rotate(-76.51)"/><circle class="cls-8" cx="57.76" cy="53.28" r="35.78" transform="translate(-7.52 97.02) rotate(-76.51)"/><path class="cls-9" d="M80.17,30.92H48.78a5.26,5.26,0,0,0-5.26,5.27v2.09H39.64A6.74,6.74,0,0,0,32.9,45V62.42a6.74,6.74,0,0,0,6.74,6.74h2.63v7a1.46,1.46,0,0,0,1,1.38,1.52,1.52,0,0,0,.51.09,1.47,1.47,0,0,0,1.12-.52l6.74-7.94H71a6.75,6.75,0,0,0,6.74-6.74V58.87h2.41a5.26,5.26,0,0,0,5.26-5.27V36.19A5.26,5.26,0,0,0,80.17,30.92ZM64.47,42.5a2.39,2.39,0,1,1-2.39,2.39A2.39,2.39,0,0,1,64.47,42.5Zm-10.94,0a2.39,2.39,0,1,1-2.39,2.39A2.39,2.39,0,0,1,53.53,42.5ZM74.82,62.42a3.8,3.8,0,0,1-3.8,3.8H50.92a1.48,1.48,0,0,0-1.13.52l-4.58,5.4V67.69a1.47,1.47,0,0,0-1.47-1.47h-4.1a3.8,3.8,0,0,1-3.8-3.8V45a3.8,3.8,0,0,1,3.8-3.79h3.88V53.6a5.26,5.26,0,0,0,5.26,5.27h26Zm.6-15.14a2.39,2.39,0,1,1,2.39-2.39A2.39,2.39,0,0,1,75.42,47.28Z"/></g></g></svg>