<?xml version="1.0" encoding="utf-8"?>
<!-- Generator: Adobe Illustrator 24.2.3, SVG Export Plug-In . SVG Version: 6.00 Build 0)  -->
<svg version="1.1" id="Layer_1" xmlns="http://www.w3.org/2000/svg" xmlns:xlink="http://www.w3.org/1999/xlink" x="0px" y="0px"
	 viewBox="0 0 431 329.3" style="enable-background:new 0 0 431 329.3;" xml:space="preserve">
<style type="text/css">
	.st0{fill:none;stroke:#FFFFFF;stroke-miterlimit:10;}
	.st1{fill:#FFFFFF;}
	.st2{fill:#F5F6F6;}
	.st3{fill:#273339;}
	.st4{fill:#545454;}
	.st5{opacity:0.6;}
	.st6{opacity:0.2;}
	.st7{fill:#010101;}
	.st8{fill:#FBBD9E;}
	.st9{fill:#EC9A6F;}
	.st10{fill:#F37260;}
	.st11{fill:#302F2F;}
	.st12{fill:#404040;}
	.st13{fill:none;stroke:#222020;stroke-width:0.75;stroke-miterlimit:10;}
	.st14{fill:#43A6DD;}
	.st15{font-family:'HelveticaNeue-Heavy';}
	.st16{font-size:21px;}
	.st17{fill:#FDFEFE;}
	.st18{fill:#465B65;}
</style>
<g id="right-line">
	<line class="st0" x1="270.8" y1="174.4" x2="333.3" y2="242.6"/>
</g>
<g id="bag-icon-box">
	<g>
		<circle class="st0" cx="349.6" cy="264" r="27"/>
		<polygon class="st1" points="342.2,253.8 338.5,275 349.6,273.5 360.7,275 356.2,253.8 		"/>
		<path class="st1" d="M353.8,253.5c-0.1,0-0.3-0.8-0.9-1.9c-0.3-0.6-0.8-1.2-1.3-1.7c-0.3-0.3-0.7-0.5-1.1-0.6s-0.9-0.2-1.3-0.2
			c-0.9,0-1.8,0.2-2.5,0.6c-0.6,0.4-1.1,1-1.4,1.6c-0.6,1.1-0.7,1.9-0.8,1.9c0-0.7,0.2-1.4,0.5-2.1c0.3-0.7,0.8-1.4,1.4-1.9
			c0.8-0.5,1.8-0.8,2.8-0.7c0.5,0,1,0.1,1.5,0.3c0.4,0.2,0.8,0.4,1.2,0.7c0.6,0.5,1,1.2,1.3,1.9S353.7,252.8,353.8,253.5z"/>
	</g>
</g>
<g id="middle-line">
	<line class="st0" x1="206.1" y1="174.2" x2="205.2" y2="236.9"/>
</g>
<g id="home-icon-box">
	<g>
		<circle class="st0" cx="60.6" cy="263.8" r="27"/>
		<polygon class="st1" points="60.3,251.6 48.6,262.3 48.6,275.8 57.7,275.8 57.7,267.7 63.5,267.7 63.5,275.8 72,275.8 72,262.3 		
			"/>
	</g>
</g>
<g id="left-line">
	<line class="st0" x1="139.7" y1="174.4" x2="77.1" y2="242.6"/>
</g>
<g id="girl-body">
	<g>
		<polygon class="st2" points="209.3,77.3 206.8,78.8 204.2,80.2 204.2,77.3 204.2,74.4 206.8,75.8 		"/>
		<path class="st2" d="M226.5,77.3c0,1.1-0.9,1.9-1.9,1.9c-1.1,0-1.9-0.9-1.9-1.9c0-1.1,0.9-1.9,1.9-1.9l0,0
			C225.6,75.4,226.5,76.2,226.5,77.3z"/>
		<path class="st3" d="M215.9,49.2c0.4,8.2,10.4,19.5,17.9,21.4c3.9,0.9,8.4,0.5,11.5,3.1c5.3,4.5,2.2,13.9,5.8,20
			c2.2,3.7,6.6,5.6,9.1,9.1c4.1,5.9,1.4,14.8-4.3,19.2c-5.6,4.4-13.2,5.2-20.2,5c-15.6-0.4-31.5-5.3-42.7-16.4
			c-5.3-5.2-26-21.2-18.7-59.1"/>
		<path class="st4" d="M272.1,108.1L213,90.5c-2.8-1.2-5.6-2.1-8.6-2.6l-20,0.1c-2.6,0-5.2,0.6-7.7,1.6l-53.8,17.9
			c-4,1.3-6.7,5.3-6.7,10l0,0c0,5.7,4.1,10.4,9.2,10.4h24.9l-0.1,0.4l86.5,0.3l0,0l33,0.1c5.1,0,9.2-4.7,9.2-10.5
			C278.8,113.5,276,109.4,272.1,108.1z"/>
		<path class="st3" d="M260.2,114.5c-0.2,0-0.4,0-0.5,0l-1.5-0.2c-1.3-0.2-3.2-0.4-5.6-0.6c-6.2-0.6-12.4-0.9-18.6-0.8
			c-6.2,0.1-12.4,0.5-18.5,1.3c-2.4,0.3-4.3,0.5-5.6,0.8l-1.5,0.2c-0.2,0-0.4,0-0.5,0c0.2-0.1,0.3-0.1,0.5-0.1l1.5-0.3
			c1.3-0.3,3.2-0.6,5.6-0.9c6.2-0.8,12.4-1.3,18.6-1.4c6.2-0.1,12.4,0.2,18.6,0.9c2.4,0.3,4.3,0.5,5.6,0.8l1.5,0.3
			C259.9,114.4,260,114.4,260.2,114.5z"/>
		<g class="st5">
			<path class="st1" d="M246.3,100.1c0,0.1-0.1,0.1-0.2,0.2l-0.5,0.5c-0.5,0.5-1.2,1.2-2.1,2c-1.1,1-2.3,2-3.6,2.9
				c-1.7,1.2-3.5,2.1-5.5,2.6c-2.4,0.6-5,0.6-7.4-0.1c-2.7-0.8-5.3-2-7.8-3.4c-2.7-1.6-5.5-2.9-8.4-3.9c-3.2-1.1-6.6-0.9-9.6,0.5
				c-3.1,1.4-5.8,3.5-8.6,5.1c-0.7,0.4-1.5,0.7-2.2,1s-1.5,0.5-2.3,0.8c-1.5,0.4-3,0.7-4.6,0.8c-5.4,0.4-10.7-1.1-15.1-4.2
				c-1.6-1.2-3.1-2.6-4.6-4.1c-1.1-1.1-2.3-2.1-3.5-2.9c-1.1-0.7-2.3-1.2-3.6-1.4c0.3,0,0.7,0,1,0.1c1,0.2,1.9,0.6,2.7,1.1
				c1.3,0.8,2.5,1.8,3.6,2.9c1.4,1.4,3,2.8,4.6,4c4.4,3,9.6,4.4,14.9,4c1.5-0.1,3-0.4,4.5-0.8c0.8-0.2,1.5-0.5,2.2-0.8
				s1.5-0.6,2.2-1c2.9-1.5,5.5-3.7,8.7-5.1c3.1-1.4,6.7-1.6,10-0.5c3,1,5.8,2.4,8.5,4c2.4,1.4,5,2.6,7.7,3.4
				c2.3,0.7,4.8,0.8,7.2,0.2c2-0.5,3.8-1.4,5.5-2.5c1.3-0.8,2.5-1.8,3.6-2.8c0.9-0.8,1.7-1.5,2.2-2L246.3,100.1
				C246.3,100.2,246.3,100.1,246.3,100.1z"/>
		</g>
		<g class="st5">
			<path class="st1" d="M267.6,107c0,0.2,0,0.4,0,0.6c0,0.5-0.1,1.1-0.2,1.6c-1.2,7-7.4,12.1-14.6,11.8c-1.9-0.1-3.8-0.5-5.6-1
				c-1.9-0.5-3.7-1.1-5.4-1.5s-3.4-0.5-5.2-0.3c-5,0.6-9.4,3.4-12.1,7.6l-0.5,0.8c-0.1,0.2-0.2,0.4-0.3,0.6s-0.2,0.3-0.3,0.5
				c0.1-0.2,0.1-0.4,0.2-0.5c0.1-0.2,0.2-0.4,0.3-0.6l0.5-0.8c1-1.8,2.4-3.3,4-4.6c2.4-1.9,5.3-3.1,8.3-3.4c1.8-0.2,3.6-0.1,5.3,0.3
				c1.8,0.4,3.6,0.9,5.5,1.5c1.8,0.6,3.6,0.9,5.5,1c4.8,0.2,9.3-2.1,12-6c1.1-1.6,1.9-3.5,2.3-5.4C267.5,107.8,267.5,107,267.6,107z
				"/>
		</g>
		<g class="st6">
			<path class="st7" d="M205.8,87.8c-1.1,3.1,0.6,6.5,2.2,9.4c1,2.1,2.4,4,3.9,5.7c1.6,1.7,3.8,2.7,6.1,2.8c3-0.1,5.7-2.3,8.8-2.2
				c2.1,0.1,3.9,1.3,5.6,2.5c2.9,2.1,6,3.8,9.4,5.2c3.4,1.3,7,1.6,10.5,0.7c3.5-1,6.3-3.7,7.3-7.2"/>
		</g>
		<path class="st8" d="M206,87c0.2-3.6,0.4-6.9,0.4-6.9s8.1-1,8.5-9.3s-0.5-27.4-0.5-27.4l-14.9-7.2l-16.1,13l2.5,38.1
			c0.4,5.5,5.1,9.7,10.6,9.4l0,0C201.7,96.4,205.8,92.2,206,87z"/>
		<path class="st3" d="M213,58.3c0,0.6-0.5,1-1,1c-0.6,0-1-0.5-1-1c0-0.6,0.5-1,1-1S213,57.7,213,58.3z"/>
		<path class="st3" d="M214,56.1c-0.1,0.1-0.9-0.5-2-0.6c-1.1,0-1.9,0.5-2.1,0.4c-0.1-0.1,0.1-0.3,0.4-0.6c0.5-0.3,1.1-0.5,1.7-0.5
			c0.6,0,1.2,0.3,1.6,0.6C214,55.8,214.1,56,214,56.1z"/>
		<path class="st3" d="M200.7,58.3c0,0.6-0.5,1-1,1c-0.6,0-1-0.5-1-1c0-0.6,0.5-1,1-1S200.7,57.7,200.7,58.3L200.7,58.3z"/>
		<path class="st3" d="M201.7,56.3c-0.1,0.1-0.9-0.5-2-0.6c-1.1,0-1.9,0.5-2.1,0.4c-0.1-0.1,0.1-0.3,0.4-0.6
			c0.5-0.3,1.1-0.5,1.6-0.5c0.6,0,1.2,0.2,1.6,0.6S201.7,56.2,201.7,56.3z"/>
		<path class="st3" d="M205.8,65.9c0.6-0.2,1.2-0.3,1.9-0.3c0.3,0,0.6-0.1,0.6-0.3c0-0.3,0-0.6-0.2-0.9c-0.3-0.8-0.5-1.5-0.8-2.4
			c-0.7-2-1.3-4.1-1.8-6.1c0.9,1.9,1.7,3.9,2.2,6c0.3,0.8,0.5,1.6,0.8,2.4c0.2,0.4,0.2,0.8,0.1,1.2c-0.1,0.2-0.3,0.4-0.5,0.4
			s-0.3,0.1-0.5,0.1C207.1,66,206.5,66,205.8,65.9z"/>
		<path class="st1" d="M202.2,67c-1.1-0.7,3.1,1.9,5.4,1.8c-0.8,1.2-2.3,1.7-3.7,1.1C201.5,69,202.2,67,202.2,67z"/>
		<path class="st9" d="M206.4,80c-3.9-0.1-7.6-1.3-10.8-3.5c0,0,2.5,6,10.6,5.6L206.4,80z"/>
		<path class="st3" d="M174.6,57.3L174.6,57.3c0,7.2-1.9,26.2,11.1,28.8L185.3,60c0,0,12.7-6,14.9-18.4l0.1,0.1
			c0.8,1.9,2.3,5.9,1.4,9.2l11.9,2.9L215,55c0,0,4.2-9.3-3.9-17.6c-8.2-8.4-15.1-2.3-19.5-2.8c-2.9-0.4-13-0.3-17.1,17.1L174.6,57.3
			z"/>
		<path class="st8" d="M185.6,60.2c-1.1-0.7-2.6-0.1-3.5,0.8c-1.8,1.9-1.7,4.9,0.3,6.7c1.2,1.1,2.9,1.5,4.5,1.1"/>
		<path class="st9" d="M185.4,66.4c0,0.1-0.4,0.1-0.9,0c-0.8-0.2-1.4-0.8-1.7-1.5c-0.2-0.4-0.1-0.9,0.1-1.4c0.2-0.3,0.4-0.6,0.7-0.8
			c0.5-0.3,0.9-0.3,0.9-0.3s-0.3,0.2-0.7,0.5c-0.5,0.4-0.7,1.1-0.5,1.7c0.3,0.6,0.8,1.1,1.4,1.4C185,66.3,185.4,66.3,185.4,66.4z"/>
		<path class="st10" d="M184.3,68c-0.5,0.1-0.8,0.6-0.7,1.1s0.6,0.8,1.1,0.7c0.5-0.1,0.8-0.6,0.7-1.1c-0.1-0.4-0.4-0.7-0.7-0.7"/>
		<path class="st8" d="M208.4,128.7v-13.6c0,0-20.3,4.2-20.6,13.5L208.4,128.7z"/>
		<path class="st3" d="M206.2,85.5c0.7,8.7,7.9,15.5,16.6,15.6c3,0,6.1-0.7,8.9,0.6c2.4,1.1,3.9,3.4,5.8,5.2c4.5,4.3,11,5.8,17,3.8
			c2.5-0.8,6.4-2.6,6.8-5.1c0.4-1.9-2-3.9-3.4-5.3c-1.5-1.3-3.2-2.4-5-3.1c-14.4-6.8-29.9-11.7-45.8-12.5"/>
	</g>
</g>
<g id="table">
	<g>
		<path class="st11" d="M79.9,128.7h261.8c6.1,0,11.1,5,11.1,11.1v24.5c0,6.1-5,11.1-11.1,11.1H79.9c-6.1,0-11.1-5-11.1-11.1v-24.5
			C68.8,133.6,73.8,128.7,79.9,128.7z"/>
		<circle class="st0" cx="324.6" cy="150.4" r="10"/>
		<line class="st0" x1="332.6" y1="156.4" x2="343.6" y2="164.3"/>
		<path class="st12" d="M85.9,134.9h210.2v34H85.9c-3.5,0-6.3-2.6-6.3-5.8v-22.4C79.6,137.5,82.4,134.9,85.9,134.9z"/>
		<line class="st13" x1="296.7" y1="128.4" x2="296.7" y2="175"/>
	</g>
</g>
<g id="text">
	<g>
		<text transform="matrix(0.7143 0 0 1 90.4917 158.4766)" class="st14 st15 st16">BOOK YOUR CONSULTED</text>
	</g>
</g>
<g id="hand_1_">
	<g id="hand">
		<g class="st6">
			<polygon class="st7" points="156.1,111.4 192.9,121.2 188.1,127.9 187,127.8 			"/>
		</g>
		<path class="st8" d="M200.7,132.5c-1-0.9-1.2-1.7,0.7-2.1c4.1-1,6.9-3.2,7.2-4.3c0.3-1.1-1.1-2-2.2-1.2c-1.2,0.7-2.5,1.3-3.9,1.7
			c-1.1,0.3-2.2,0.5-3.4,0.5c-1,0-1.9-0.1-2.6-0.1c0,0-4.5-0.3-6.6-1.5l-7.9,11.2l5,4.3c1.6,1.7,3.9,2.4,6.2,1.9
			c3.7-0.9,8.3-4.3,8.3-4.3c0.5-1.1,7.1,1.7,9.2,2.8c2.1,1.1,3.5,0.6,3.3-0.8c-0.2-0.9-6.6-4.5-8.8-5.6
			C203.7,134.5,202.1,133.6,200.7,132.5"/>
		<path class="st9" d="M196.5,141.9c0,0.1-0.2,0.2-0.7,0.3c-1.3,0.1-2.5-0.6-3.1-1.7c-0.2-0.4-0.2-0.7-0.2-0.8
			c0.5,0.6,1,1.2,1.7,1.6C194.9,141.7,195.7,141.9,196.5,141.9z"/>
		<path class="st9" d="M199.9,140c0,0.1-0.2,0.2-0.7,0.2c-1.2,0.1-2.4-0.6-3-1.7c-0.2-0.4-0.2-0.7-0.2-0.7s0.5,1,1.6,1.6
			C198.4,139.7,199.2,139.9,199.9,140z"/>
		<path class="st4" d="M120.7,118.2c-3,3.1-1.6,8.2,2.5,9.3c19.1,5.4,61.9,17.4,61.6,17c-0.4-0.6,7.8-21.5,7.8-21.5l-52.4-17.3
			c-3.4-1.1-7.2-0.2-9.7,2.4L120.7,118.2z"/>
		<g class="st5">
			<path class="st1" d="M165.6,116.4c0,0.6-0.1,1.2-0.3,1.8c-0.6,1.6-1.6,2.9-2.9,3.9c-0.9,0.7-1.9,1.2-3,1.6
				c-1.3,0.4-2.6,0.6-3.9,0.5c-3-0.1-5.9-0.6-8.8-1.6c-2.8-1-5.7-1.6-8.6-2c-1.3-0.1-2.6-0.1-3.8,0.1c-1.1,0.2-2.2,0.5-3.2,1
				c-1.5,0.7-2.7,1.7-3.7,3.1c-0.3,0.5-0.6,1-0.8,1.6c0.1-0.6,0.4-1.1,0.7-1.7c0.9-1.4,2.2-2.5,3.7-3.2c1-0.5,2.1-0.9,3.2-1.1
				c1.3-0.2,2.6-0.3,3.9-0.1c3,0.4,5.9,1.1,8.7,2c2.8,1,5.7,1.5,8.6,1.7c1.3,0,2.5-0.2,3.8-0.5c1.1-0.3,2.1-0.8,3-1.5
				c1.3-0.9,2.4-2.2,3-3.7C165.3,117.6,165.5,117,165.6,116.4z"/>
		</g>
		<g class="st5">
			<path class="st1" d="M190.1,124.7c0,0.1-1.5,0.1-3.9,0.3c-1.4,0.2-2.8,0.5-4.2,0.8c-1.7,0.4-3.3,1-4.9,1.7
				c-1.6,0.7-3.1,1.5-4.6,2.5c-1.2,0.8-2.3,1.6-3.4,2.5c-1.8,1.6-2.8,2.7-2.9,2.6c0.2-0.3,0.4-0.6,0.6-0.8c0.6-0.7,1.3-1.4,2-2.1
				c1.1-1,2.2-1.9,3.4-2.6c2.9-2,6.2-3.4,9.6-4.2c1.4-0.3,2.8-0.6,4.2-0.7c2.2-0.2,0.8-0.2,2.9-0.1
				C189.4,124.6,189.7,124.6,190.1,124.7z"/>
		</g>
		<path class="st3" d="M156,111c0.5,0.1,1,0.2,1.5,0.4l3.9,1.2c3.3,1.1,7.9,2.5,12.9,4.2s9.6,3.2,12.8,4.4l3.9,1.3
			c0.5,0.1,1,0.3,1.4,0.6c-0.5-0.1-1-0.2-1.5-0.4l-3.9-1.2c-3.3-1.1-7.9-2.5-12.9-4.2s-9.6-3.2-12.8-4.4l-3.9-1.3
			C156.9,111.4,156.4,111.2,156,111z"/>
	</g>
</g>
<g id="cursor-pointer">
	<g id="cursor">
		<path class="st1" d="M379.1,187.6c-0.8,0.7-1.7,1.3-2.7,1.9c-0.9,0.6-1.8,1.2-2.8,1.6c0.8-0.7,1.7-1.3,2.7-1.9
			C377.2,188.6,378.2,188.1,379.1,187.6z"/>
		<path class="st1" d="M379.7,183.8c-0.4-0.1-0.8-0.2-1.2-0.3c-0.7-0.2-1.7-0.6-2.8-1c-1.1-0.5-2-0.9-2.7-1.2
			c-0.4-0.1-0.7-0.3-1.1-0.6c0.4,0.1,0.8,0.2,1.1,0.4l2.7,1.1l2.7,1.1C379,183.4,379.4,183.6,379.7,183.8z"/>
		<path class="st1" d="M381.9,175.3c0.1,0.3,0.2,0.7,0.3,1c0.1,0.6,0.3,1.6,0.4,2.6s0.2,1.9,0.2,2.6c0,0.4,0,0.7,0,1.1
			c-0.2-1.2-0.4-2.4-0.5-3.6C382.1,177.7,382,176.5,381.9,175.3z"/>
		<path class="st1" d="M392.1,179.5c0,0.1-1.3,0.7-2.9,1.6c-1.5,1-2.7,1.8-2.8,1.8c0-0.1,0.3-0.3,0.7-0.6c0.6-0.5,1.3-0.9,1.9-1.4
			C390,180.3,391,179.8,392.1,179.5z"/>
	</g>
</g>
<g id="cursor_1_">
	<polygon class="st17" points="386.7,194.6 394,213.4 397.1,208.5 401.3,214.1 406.4,209.2 401.6,204.6 406,201.6 	"/>
</g>
<g id="text-icon-box">
	<g>
		<circle class="st0" cx="205.3" cy="263.5" r="27"/>
		<rect x="194.5" y="249.8" class="st1" width="21.1" height="28"/>
		<path class="st18" d="M206.1,254.3c-2.3,0.3-4.6,0.3-6.9,0C201.4,253.9,203.8,253.9,206.1,254.3z"/>
		<path class="st18" d="M212.2,258.2c-2.3,0.2-4.6,0.3-6.9,0.2c-2.3,0.1-4.6,0-6.9-0.2c2.3-0.2,4.6-0.3,6.9-0.2
			C207.6,257.9,209.9,258,212.2,258.2z"/>
		<path class="st18" d="M212.2,260.6c-2.3,0.2-4.6,0.3-6.9,0.2c-2.3,0.1-4.6,0-6.9-0.2c2.3-0.2,4.6-0.3,6.9-0.2
			C207.6,260.3,209.9,260.4,212.2,260.6z"/>
		<path class="st18" d="M212.2,263c-2.3,0.2-4.6,0.3-6.9,0.2c-2.3,0.1-4.6,0-6.9-0.2c2.3-0.2,4.6-0.3,6.9-0.2
			C207.6,262.7,209.9,262.8,212.2,263z"/>
		<path class="st18" d="M212.2,265.4c-2.3,0.2-4.6,0.3-6.9,0.2c-2.3,0.1-4.6,0-6.9-0.2c2.3-0.2,4.6-0.3,6.9-0.2
			C207.6,265.1,209.9,265.2,212.2,265.4z"/>
		<path class="st18" d="M212.2,267.8c-2.3,0.2-4.6,0.3-6.9,0.2c-2.3,0.1-4.6,0-6.9-0.2c2.3-0.2,4.6-0.3,6.9-0.2
			C207.6,267.5,209.9,267.5,212.2,267.8z"/>
		<path class="st18" d="M212.2,270.2c-2.3,0.2-4.6,0.3-6.9,0.2c-2.3,0.1-4.6,0-6.9-0.2c2.3-0.2,4.6-0.3,6.9-0.2
			C207.6,269.8,209.9,269.9,212.2,270.2z"/>
		<path class="st18" d="M212.2,272.6c-2.3,0.2-4.6,0.3-6.9,0.2c-2.3,0.1-4.6,0-6.9-0.2c2.3-0.2,4.6-0.3,6.9-0.2
			C207.6,272.2,209.9,272.3,212.2,272.6z"/>
	</g>
</g>
<g id="back-Note">
	
		<rect id="back-note-text" x="86.1" y="48.4" transform="matrix(0.9774 -0.2112 0.2112 0.9774 -13.054 23.6044)" class="st12" width="35.8" height="49"/>
	<g>
		<g>
			<line class="st3" x1="88.5" y1="61.2" x2="105.6" y2="57.4"/>
			<path d="M88.5,61.2c1.4-0.4,2.8-0.8,4.2-1.1l4.3-1l4.3-0.9c1.4-0.3,2.9-0.6,4.3-0.8c-1.4,0.4-2.8,0.8-4.2,1.1l-4.3,1l-4.3,0.9
				C91.4,60.7,89.9,60.9,88.5,61.2z"/>
		</g>
		<g>
			<line class="st3" x1="89.4" y1="65.2" x2="115.6" y2="59.6"/>
			<path d="M89.4,65.2c2.2-0.5,4.3-1.1,6.5-1.6l6.5-1.5l6.6-1.4c2.2-0.4,4.4-0.9,6.6-1.3c-2.2,0.5-4.3,1.1-6.5,1.6l-6.5,1.5L96,64
				C93.8,64.4,91.6,64.8,89.4,65.2z"/>
		</g>
		<g>
			<line class="st3" x1="90.4" y1="69.6" x2="116.6" y2="63.9"/>
			<path d="M90.4,69.6c2.2-0.5,4.3-1.1,6.5-1.6l6.5-1.5l6.6-1.4c2.2-0.4,4.4-0.9,6.6-1.3c-2.2,0.5-4.3,1.1-6.5,1.6l-6.5,1.5L97,68.3
				C94.8,68.8,92.6,69.2,90.4,69.6z"/>
		</g>
		<g>
			<line class="st3" x1="91.4" y1="73.9" x2="117.6" y2="68.3"/>
			<path d="M91.4,73.9c2.2-0.5,4.3-1.1,6.5-1.6l6.5-1.5l6.6-1.4c2.2-0.4,4.4-0.9,6.6-1.3c-2.2,0.5-4.3,1.1-6.5,1.6l-6.5,1.5L98,72.7
				C95.8,73.1,93.6,73.5,91.4,73.9z"/>
		</g>
		<g>
			<line class="st3" x1="92.4" y1="78.3" x2="118.6" y2="72.6"/>
			<path d="M92.4,78.3c2.2-0.5,4.3-1.1,6.5-1.6l6.5-1.5l6.6-1.4c2.2-0.4,4.4-0.9,6.6-1.3c-2.2,0.5-4.3,1.1-6.5,1.6l-6.5,1.5L99,77
				C96.8,77.5,94.6,77.9,92.4,78.3z"/>
		</g>
		<g>
			<line class="st3" x1="93.4" y1="82.6" x2="119.6" y2="77"/>
			<path d="M93.4,82.6c2.2-0.5,4.3-1.1,6.5-1.6l6.5-1.5l6.6-1.4c2.2-0.4,4.4-0.9,6.6-1.3c-2.2,0.5-4.3,1.1-6.5,1.6l-6.5,1.5
				l-6.6,1.4C97.8,81.8,95.6,82.2,93.4,82.6z"/>
		</g>
		<g>
			<line class="st3" x1="94.4" y1="87" x2="120.6" y2="81.3"/>
			<path d="M94.4,87c2.2-0.5,4.3-1.1,6.5-1.6l6.5-1.5l6.6-1.4c2.2-0.4,4.4-0.9,6.6-1.3c-2.2,0.5-4.3,1.1-6.5,1.6l-6.5,1.5l-6.6,1.4
				C98.8,86.2,96.6,86.6,94.4,87z"/>
		</g>
		<g>
			<line class="st3" x1="95" y1="91.4" x2="112.4" y2="87.6"/>
			<path d="M95,91.4c1.4-0.4,2.9-0.8,4.3-1.1l4.3-1l4.4-0.9c1.5-0.3,2.9-0.5,4.4-0.8c-1.4,0.4-2.9,0.8-4.3,1.1l-4.3,1l-4.4,0.9
				C97.9,90.8,96.5,91.1,95,91.4z"/>
		</g>
	</g>
</g>
<g id="front-note">
	<g id="note-text">
		
			<rect x="81.2" y="56.9" transform="matrix(0.9769 -0.2138 0.2138 0.9769 -15.1207 23.1308)" class="st4" width="36.4" height="49.1"/>
		<g>
			<g>
				<line class="st3" x1="83.5" y1="69.7" x2="100.7" y2="66.3"/>
				<path d="M83.5,69.7c1.4-0.4,2.8-0.7,4.3-1l4.3-0.9l4.3-0.8c1.4-0.3,2.9-0.5,4.3-0.7c-1.4,0.4-2.8,0.7-4.3,1l-4.3,0.9L87.9,69
					C86.4,69.3,85,69.5,83.5,69.7z"/>
			</g>
			<g>
				<line class="st3" x1="84.4" y1="73.8" x2="110.7" y2="68.7"/>
				<path d="M84.4,73.8c2.2-0.5,4.4-1,6.6-1.4l6.6-1.3l6.6-1.2c2.2-0.4,4.4-0.8,6.6-1.1c-2.2,0.5-4.4,1-6.6,1.4l-6.6,1.3L91,72.7
					C88.8,73.1,86.6,73.4,84.4,73.8z"/>
			</g>
			<g>
				<line class="st3" x1="85.3" y1="78.1" x2="111.6" y2="73.1"/>
				<path d="M85.3,78.1c2.2-0.5,4.4-1,6.6-1.4l6.6-1.3l6.6-1.2c2.2-0.4,4.4-0.8,6.6-1.1c-2.2,0.5-4.4,1-6.6,1.4l-6.6,1.3L91.9,77
					C89.7,77.4,87.5,77.8,85.3,78.1z"/>
			</g>
			<g>
				<line class="st3" x1="86.1" y1="82.5" x2="112.5" y2="77.5"/>
				<path d="M86.1,82.5c2.2-0.5,4.4-1,6.6-1.4l6.6-1.3l6.6-1.2c2.2-0.4,4.4-0.8,6.6-1.1c-2.2,0.5-4.4,1-6.6,1.4l-6.6,1.3l-6.6,1.2
					C90.6,81.8,88.4,82.2,86.1,82.5z"/>
			</g>
			<g>
				<line class="st3" x1="87" y1="86.9" x2="113.4" y2="81.9"/>
				<path d="M87,86.9c2.2-0.5,4.4-1,6.6-1.4l6.6-1.3l6.6-1.2c2.2-0.4,4.4-0.8,6.6-1.1c-2.2,0.5-4.4,1-6.6,1.4l-6.6,1.3l-6.6,1.2
					C91.4,86.2,89.2,86.5,87,86.9z"/>
			</g>
			<g>
				<line class="st3" x1="87.9" y1="91.3" x2="114.3" y2="86.2"/>
				<path d="M87.9,91.3c2.2-0.5,4.4-1,6.6-1.4l6.6-1.3l6.6-1.2c2.2-0.4,4.4-0.8,6.6-1.1c-2.2,0.5-4.4,1-6.6,1.4l-6.6,1.3l-6.6,1.2
					C92.3,90.5,90.1,90.9,87.9,91.3z"/>
			</g>
			<g>
				<line class="st3" x1="88.8" y1="95.6" x2="115.1" y2="90.6"/>
				<path d="M88.8,95.6c2.2-0.5,4.4-1,6.6-1.4l6.6-1.3l6.6-1.2c2.2-0.4,4.4-0.8,6.6-1.1c-2.2,0.5-4.4,1-6.6,1.4l-6.6,1.3l-6.6,1.2
					C93.2,94.9,91,95.3,88.8,95.6z"/>
			</g>
			<g>
				<line class="st3" x1="89.3" y1="100" x2="106.8" y2="96.7"/>
				<path d="M89.3,100c1.4-0.3,2.9-0.7,4.3-1l4.4-0.9l4.4-0.8c1.5-0.3,2.9-0.5,4.4-0.7c-1.4,0.4-2.9,0.7-4.3,1l-4.4,0.9l-4.4,0.8
					C92.2,99.6,90.8,99.8,89.3,100z"/>
			</g>
		</g>
	</g>
</g>
</svg>
