<?xml version="1.0" encoding="utf-8"?>
<!-- Generator: Adobe Illustrator 24.2.3, SVG Export Plug-In . SVG Version: 6.00 Build 0)  -->
<svg version="1.1" xmlns="http://www.w3.org/2000/svg" xmlns:xlink="http://www.w3.org/1999/xlink" x="0px" y="0px"
	 viewBox="0 0 800 619.7" style="enable-background:new 0 0 800 619.7;" xml:space="preserve">
<style type="text/css">
	.st0{opacity:0.38;fill:#40403F;}
	
		.st1{fill:none;stroke:#88A2D4;stroke-width:1.0183;stroke-linecap:round;stroke-linejoin:round;stroke-miterlimit:10;stroke-dasharray:2.0366,7.128;}
	.st2{fill:#1794CC;}
	.st3{fill:#1A84AB;}
	.st4{fill:#43A6DD;}
	.st5{opacity:0.38;}
	.st6{fill:#DFE2E7;}
	.st7{fill:#FFFFFF;}
	.st8{fill:#302F2F;}
	.st9{fill:none;stroke:#FFFFFF;stroke-width:1.4507;stroke-linecap:round;stroke-linejoin:round;stroke-miterlimit:10;}
	.st10{opacity:0.38;fill:#DFE2E7;}
	.st11{fill:#647DBE;}
	.st12{opacity:0.38;fill:none;stroke:#CFD3D8;stroke-width:2.0366;stroke-miterlimit:10;}
	.st13{fill:#40403F;}
	.st14{fill:#C9C9C9;}
	.st15{fill:#D4D4D4;}
	.st16{fill:#F2F2F2;}
	.st17{fill:#E5E5E5;}
</style>
<g id="Laptop-Background_2_">
	<path id="Laptop-Background" class="st0" d="M184.9,577.2c0,0-126.4-87.6-60.8-170.6S319.8,353,448.6,302.6s178.7-69.5,225.7-25
		c45.9,43.5-39.8,127.5,19.7,200.4c64.4,78.9-17.6,93.2-33.1,99.2H184.9z"/>
</g>
<g id="Telegram-back-line">
	<path id="Dotted-line" class="st1" d="M316.4,318.1c-30.5,21.1-46.2,34.1-49,2.1c-6.9-79.1-74.9-120.7-124.5-120.6"/>
</g>
<g id="Telegram">
	<g id="telegram">
		<path class="st2" d="M117.4,185.7c-0.2-0.1,12.6,0.2,12.6,0.2l6.8,17.2l-11.5-9.1l-13.5,4.8l-26.8-6.1L117.4,185.7z"/>
		<polygon class="st3" points="85.1,192.6 136.8,203 125.3,193.9 		"/>
		<polygon class="st4" points="85.1,192.6 135.6,175.8 130,185.8 85.1,192.6 125.3,193.9 116.1,211.4 		"/>
	</g>
</g>
<g id="Top-bar-3">
	<g id="Top-white-bar-big">
		<g class="st5">
			<path class="st6" d="M570.8,108.7h-41.3c-5.5,0-10-4.5-10-10l0,0c0-5.5,4.5-10,10-10h41.3c5.5,0,10,4.5,10,10l0,0
				C580.8,104.2,576.3,108.7,570.8,108.7z"/>
		</g>
		<g>
			<path class="st7" d="M541.7,98.7c0,1.4-1.1,2.6-2.5,2.6s-2.6-1.1-2.6-2.5c0-1.4,1.1-2.6,2.5-2.6
				C540.5,96.2,541.7,97.3,541.7,98.7z"/>
			<path class="st7" d="M552.7,98.7c0,1.4-1.1,2.6-2.5,2.6c-1.4,0-2.6-1.1-2.6-2.5c0-1.4,1.1-2.6,2.5-2.6
				C551.5,96.1,552.7,97.3,552.7,98.7z"/>
			<path class="st7" d="M563.6,98.7c0,1.4-1.1,2.6-2.5,2.6c-1.4,0-2.6-1.1-2.6-2.5c0-1.4,1.1-2.6,2.5-2.6
				C562.5,96.1,563.6,97.3,563.6,98.7z"/>
		</g>
	</g>
</g>
<g id="Email-Circle">
	<g id="Mail-Circle">
		
			<ellipse transform="matrix(0.1591 -0.9873 0.9873 0.1591 -175.6057 386.7292)" class="st8" cx="139.2" cy="296.4" rx="46.9" ry="46.9"/>
		<g>
			<g>
				<polygon class="st7" points="120,307.8 130.7,297.1 120,289.1 				"/>
				<polygon class="st7" points="144.9,299 139.1,303.3 133.3,298.9 123.2,309.2 155,309.2 				"/>
				<polygon class="st7" points="147.5,297.1 158.2,307.8 158.2,289.1 				"/>
				<polygon class="st7" points="139.2,299.7 158.3,285.5 158.3,280.8 120.1,280.8 120.1,285.5 				"/>
			</g>
		</g>
	</g>
</g>
<g id="Graph-Rectangle">
	<g id="Graph-Rectangular">
		<g class="st5">
			<g>
				<g>
					<g>
						<g>
							<g>
								<path class="st8" d="M673.7,229.6h-86.9c-3.5,0-6.3-2.8-6.3-6.3v-81.7c0-2.6,2.1-4.8,4.8-4.8h88.5c2.6,0,4.8,2.1,4.8,4.8
									v83.2C678.5,227.5,676.4,229.6,673.7,229.6z"/>
							</g>
						</g>
					</g>
				</g>
			</g>
		</g>
		<g>
			<g>
				<polyline class="st9" points="644,155.6 652.7,156.9 627.9,173 623.3,166.7 604.8,177.5 				"/>
				<line class="st9" x1="649.6" y1="165.3" x2="652.7" y2="156.9"/>
			</g>
			<rect x="606.8" y="189.8" class="st7" width="8.7" height="17.3"/>
			<rect x="618.9" y="184.8" class="st7" width="8.7" height="22.4"/>
			<rect x="631.4" y="179.4" class="st7" width="8.7" height="27.7"/>
			<rect x="644" y="174.8" class="st7" width="8.7" height="32.3"/>
		</g>
	</g>
</g>
<g id="Wheel-Circle_1_">
	<g id="Wheel-Circle">
		<g>
			
				<ellipse transform="matrix(0.7071 -0.7071 0.7071 0.7071 -21.8936 596.9186)" class="st8" cx="709.6" cy="324.9" rx="43" ry="43"/>
		</g>
		<path class="st7" d="M726.4,321.6l-2.8-0.5c-0.3-1.2-0.8-2.4-1.4-3.5l1.6-2.3c0.6-0.9,0.5-2-0.2-2.7l-1.7-1.7
			c-0.7-0.7-1.9-0.8-2.7-0.2l-2.3,1.6c-1.1-0.6-2.3-1.1-3.5-1.4l-0.5-2.8c-0.2-1-1-1.8-2.1-1.8h-2.4c-1,0-1.9,0.7-2.1,1.8l-0.5,2.8
			c-1.2,0.3-2.4,0.8-3.5,1.4l-2.3-1.6c-0.9-0.6-2-0.5-2.7,0.2l-1.7,1.7c-0.7,0.7-0.8,1.9-0.2,2.7l1.6,2.3c-0.6,1.1-1.1,2.3-1.4,3.5
			l-2.8,0.5c-1,0.2-1.8,1.1-1.8,2.1v2.4c0,1,0.7,1.9,1.8,2.1l2.8,0.5c0.3,1.2,0.8,2.4,1.4,3.5l-1.6,2.3c-0.6,0.9-0.5,2,0.2,2.7
			l1.7,1.7c0.7,0.7,1.9,0.8,2.7,0.2l2.3-1.6c1.1,0.6,2.3,1.1,3.5,1.4l0.5,2.8c0.2,1,1.1,1.8,2.1,1.8h2.4c1,0,1.9-0.7,2.1-1.8
			l0.5-2.8c1.2-0.3,2.4-0.8,3.5-1.4l2.3,1.6c0.9,0.6,2,0.5,2.7-0.2l1.7-1.7c0.7-0.7,0.8-1.9,0.2-2.7l-1.6-2.3
			c0.6-1.1,1.1-2.3,1.4-3.5l2.8-0.5c1-0.2,1.8-1.1,1.8-2.1v-2.4C728.2,322.6,727.4,321.8,726.4,321.6z M709.6,331.2
			c-3.5,0-6.4-2.9-6.4-6.4c0-3.5,2.9-6.4,6.4-6.4c3.5,0,6.4,2.9,6.4,6.4c0,0,0,0,0,0C715.9,328.4,713.1,331.2,709.6,331.2z"/>
	</g>
</g>
<g id="Targate-Rectangle">
	<g id="Targat-Rectanglar">
		<g>
			<g>
				<g>
					<g>
						<g>
							<g>
								<path class="st8" d="M304.3,170.4H199.5c-3.5,0-6.3-2.8-6.3-6.3V84.7c0-2.6,2.1-4.8,4.8-4.8h106.3c2.6,0,4.8,2.1,4.8,4.8
									v80.9C309,168.3,306.9,170.4,304.3,170.4z"/>
							</g>
						</g>
					</g>
				</g>
			</g>
		</g>
		<g>
			<path class="st7" d="M280,103.1l-5.2-1c-0.2,0-0.3-0.2-0.3-0.3l-1-5.2c-0.1-0.6-0.6-0.7-1-0.3l-7.4,7.4c-0.2,0.2-0.3,0.6-0.3,0.9
				l0.7,3.7l-17.6,17.3c-0.8,0.8-0.8,2,0,2.7c0.8,0.8,2,0.8,2.7,0l17.6-17.3l3.7,0.7c0.3,0.1,0.7-0.1,0.9-0.3l7.4-7.4
				C280.7,103.6,280.6,103.2,280,103.1z"/>
			<path class="st7" d="M255.2,115.7l3.2-3.2c0.1-0.1,0.1-0.3,0-0.4c-2.7-1.6-5.8-2.4-8.9-2.4c-4.5,0-9,1.7-12.5,5.2
				c-6.9,6.9-6.9,18.1,0,24.9c3.4,3.4,8,5.2,12.5,5.2c4.5,0,9-1.7,12.5-5.2c5.8-5.8,6.7-14.6,2.7-21.4c-0.1-0.1-0.3-0.2-0.4,0
				l-3.2,3.2c-0.1,0.1-0.2,0.3-0.1,0.5c0.7,1.6,1.1,3.4,1.1,5.2c0,3.4-1.3,6.6-3.7,8.9c-2.4,2.4-5.6,3.7-8.9,3.7
				c-3.4,0-6.6-1.3-8.9-3.7c-4.9-4.9-4.9-13,0-17.9c2.4-2.4,5.6-3.7,8.9-3.7c1.8,0,3.6,0.4,5.2,1.1
				C254.9,115.8,255.1,115.8,255.2,115.7z"/>
			<path class="st7" d="M273.7,114.6l-3.3,3.3c-0.1,0.1-0.2,0.3-0.1,0.5c1.2,2.8,1.8,5.8,1.8,8.9c0,6-2.4,11.7-6.6,16
				c-4.3,4.3-10,6.6-16,6.6c-6,0-11.7-2.4-16-6.6c-8.8-8.8-8.8-23.2,0-32c4.3-4.3,10-6.6,16-6.6c3.1,0,6.1,0.6,8.9,1.8
				c0.2,0.1,0.4,0,0.5-0.1l3.3-3.3c0.1-0.1,0.1-0.3-0.1-0.4c-4-2-8.3-3.1-12.6-3.1c-7.1,0-14.1,2.7-19.5,8.1
				c-10.8,10.8-10.8,28.3,0,39c5.4,5.4,12.5,8.1,19.5,8.1c7.1,0,14.1-2.7,19.5-8.1c8.7-8.7,10.4-21.8,5-32.2
				C274,114.5,273.8,114.5,273.7,114.6z"/>
		</g>
	</g>
</g>
<g id="Right-color-bar_1_">
	<path id="Left-color-bar" class="st4" d="M164.4,470.2h-11.7c-1,0-1.8-0.8-1.8-1.8v-11.2c0-1,0.8-1.8,1.8-1.8h11.7
		c1,0,1.8,0.8,1.8,1.8v11.2C166.1,469.4,165.3,470.2,164.4,470.2z"/>
</g>
<g id="Left-white-bar_1_">
	<path id="Right-white-bar" class="st7" d="M748.7,457.6H663c-2.1,0-3.7-1.7-3.7-3.7l0,0c0-2.1,1.7-3.7,3.7-3.7h85.7
		c2.1,0,3.7,1.7,3.7,3.7l0,0C752.5,456,750.8,457.6,748.7,457.6z"/>
</g>
<g id="Top-bar-2">
	<path id="Top_x5F_White_x5F_bar_x5F_2" class="st10" d="M539.7,175.8h-43c-1.5,0-2.8-1.2-2.8-2.8v-6c0-1.5,1.2-2.8,2.8-2.8h43
		c1.5,0,2.8,1.2,2.8,2.8v6C542.5,174.5,541.2,175.8,539.7,175.8z"/>
</g>
<g id="Top-bar">
	<path id="Top_x5F_white_x5F_bar" class="st10" d="M322,232h-53.6c-3.2,0-5.8-2.6-5.8-5.8l0,0c0-3.2,2.6-5.8,5.8-5.8H322
		c3.2,0,5.8,2.6,5.8,5.8l0,0C327.8,229.4,325.2,232,322,232z"/>
</g>
<g id="Right-white-bar_1_">
	<path id="Left-white-bar" class="st7" d="M147.5,410.4H83c-0.9,0-1.7,0.8-1.7,1.7v4.1c0,0.9,0.8,1.7,1.7,1.7h64.5
		c0.9,0,1.7-0.8,1.7-1.7v-4.1C149.2,411.1,148.5,410.4,147.5,410.4z"/>
</g>
<g id="Left-color-bar_1_">
	<path id="Right-color-bar" class="st4" d="M693.9,416.8h-34.8c-0.9,0-1.7,0.8-1.7,1.7v4.1c0,0.9,0.8,1.7,1.7,1.7h34.8
		c0.9,0,1.7-0.8,1.7-1.7v-4.1C695.5,417.6,694.8,416.8,693.9,416.8z"/>
</g>
<g id="Circle-6">
	<path id="Circle_x5F_6" class="st7" d="M742.6,225.4c0,3.4-2.8,6.1-6.1,6.1c-3.4,0-6.1-2.8-6.1-6.1c0-3.4,2.8-6.1,6.1-6.1
		C739.8,219.3,742.6,222,742.6,225.4z"/>
</g>
<g id="Circle-5">
	<path id="Circle_x5F_3" class="st11" d="M474.6,47.4c0,3.4-2.8,6.1-6.1,6.1c-3.4,0-6.1-2.8-6.1-6.1c0-3.4,2.8-6.1,6.1-6.1
		C471.9,41.3,474.6,44,474.6,47.4z"/>
</g>
<g id="Circle-4">
	<path id="Circle_x5F_2" class="st12" d="M721,97.1c0,4.7-3.8,8.5-8.5,8.5c-4.7,0-8.5-3.8-8.5-8.5c0-4.7,3.8-8.5,8.5-8.5
		C717.1,88.6,721,92.4,721,97.1z"/>
</g>
<g id="Circle-3">
	<path id="Circle_x5F_5" class="st12" d="M64.2,475.2c0,4.7-3.8,8.5-8.5,8.5c-4.7,0-8.5-3.8-8.5-8.5c0-4.7,3.8-8.5,8.5-8.5
		C60.4,466.7,64.2,470.5,64.2,475.2z"/>
</g>
<g id="Circle-2">
	<path id="Circle_x5F_4" class="st10" d="M134.2,119.4c0,3.9-3.1,7-7,7c-3.9,0-7-3.1-7-7c0-3.9,3.1-7,7-7
		C131.1,112.4,134.2,115.6,134.2,119.4z"/>
</g>
<g id="Circle-1">
	<path id="Circle_x5F_1" class="st10" d="M752.8,401.9c0,3.9-3.1,7-7,7c-3.9,0-7-3.1-7-7c0-3.9,3.1-7,7-7
		C749.7,394.9,752.8,398.1,752.8,401.9z"/>
</g>
<g id="Laptop-Rocket">
	<path id="Laptop-background" class="st7" d="M644.3,564V309.7c0-14.1-11.4-25.5-25.5-25.5H216.7c-14.1,0-25.5,11.4-25.5,25.5V564
		H644.3z"/>
	
		<image style="overflow:visible;" width="800" height="398" id="Laptop-Image" xlink:href="3CEC6D77.png"  transform="matrix(0.5281 0 0 0.5412 207.8155 307.1562)">
	</image>
	<g id="Rocket_1_">
		<g id="Rocket">
			<g>
				<path class="st4" d="M459.4,263.6c-0.7,16.7-10.6,55.2-10.6,55.2c18.4-13.6,19.2,19.1,19.2,19.1
					C498.1,243.1,459.4,263.6,459.4,263.6z"/>
				<path class="st4" d="M376.4,337.9c0,0,0.9-32.7,19.2-19.1c0,0-9.9-38.5-10.6-55.2C385.1,263.6,346.4,243.1,376.4,337.9z"/>
				<path class="st4" d="M442.4,146.6L442.4,146.6C442.5,146.6,442.4,146.5,442.4,146.6c0-0.1,0-0.1,0-0.2c0-0.3-0.2-0.5-0.5-0.7
					c-3.1-5.5-19-35.1-19.7-69.9c1.3,0,2.4-1.1,2.4-2.5c0-1.4-1.1-2.5-2.5-2.5c-1.4,0-2.5,1.1-2.5,2.5c0,1.3,1.1,2.4,2.4,2.5
					c-0.7,34.7-16.5,64.3-19.7,69.8c-0.4,0.2-0.6,0.5-0.6,0.8c0,0.1,0,0.1,0,0.2c-1.7,1.7-16.6,18.4-16.6,67.5
					c0,52.1,14,102.9,14,102.9l23,0l23,0c0,0,13.9-50.9,13.9-103C459.1,165.1,444.2,148.4,442.4,146.6z M422.2,168.5
					c6.6,0,12,5.3,12,11.9c0,6.6-5.3,12-11.9,12c-6.6,0-12-5.3-12-11.9C410.2,173.9,415.6,168.6,422.2,168.5z M422.2,211.2
					c6.6,0,12,5.3,12,11.9c0,6.6-5.3,12-11.9,12c-6.6,0-12-5.3-12-11.9C410.3,216.5,415.6,211.2,422.2,211.2z M422.2,277.7
					c-6.6,0-12-5.3-12-11.9c0-6.6,5.3-12,11.9-12c6.6,0,12,5.3,12,11.9C434.2,272.3,428.8,277.7,422.2,277.7z"/>
				<path class="st4" d="M435.7,323.8c0,0,3.3,9.1-1,18.3c0,0,0.6-2.6-1-3.9c-0.3-0.2-0.6-0.4-1-0.5c-2.9-0.8,0.2,11.3-10.3,22.7
					c-10.5-11.3-7.5-23.5-10.3-22.7c-0.4,0.1-0.8,0.3-1,0.5c-1.6,1.3-1,3.9-1,3.9c-4.4-9.1-1-18.2-1-18.3l-6.5,0
					c0,0-4.9,13.5,1.5,27.1c0,0-0.9-3.9,1.5-5.8c0.4-0.3,0.9-0.6,1.5-0.8c4.2-1.2-0.3,16.8,15.3,33.6c15.6-16.8,11.1-34.9,15.3-33.6
					c0.6,0.2,1.1,0.4,1.5,0.8c2.4,1.9,1.5,5.8,1.5,5.8c6.5-13.5,1.5-27.1,1.5-27.1L435.7,323.8z"/>
			</g>
		</g>
	</g>
	<path id="Laptop-Border" class="st13" d="M618.8,284.3H216.7c-14.1,0-25.5,11.4-25.5,25.5V564h453V309.7
		C644.3,295.7,632.9,284.3,618.8,284.3z M630.3,542.6H207.8v-243h422.5V542.6z"/>
	<path id="Laptop-Stand" class="st14" d="M155.6,559.4v6.2c0,7,12.7,12.7,28.5,12.7h467.4c15.7,0,28.5-5.7,28.5-12.7v-6.2H155.6z"/>
	<path id="laptop-camera" class="st15" d="M420.1,291.3c0,1.3-1,2.3-2.3,2.3c-1.3,0-2.3-1-2.3-2.3c0-1.3,1-2.3,2.3-2.3
		C419,289,420.1,290,420.1,291.3z"/>
</g>
<g id="Cloud_1_">
	<g id="Cloud">
		<path class="st16" d="M557.7,494.6c-2.9,0-5.6,0.9-7.8,2.5c-0.5-10.5-9.1-18.8-19.7-18.8c-3.3,0-6.5,0.8-9.3,2.3
			c1.3-3.3,2-6.8,2-10.5c0-16-13-29-29-29c-9.6,0-18.1,4.7-23.4,11.9l-18.2-109.7l12.6,115c-1-1.1-2.2-2-3.5-2.9l-15.1-104.9
			l8.6,102.1c-1.5-0.4-3.1-0.6-4.7-0.6c-3.6,0-7,0.9-10,2.6c-1.3-5.8-5.4-10.5-10.8-12.5l-3.9-72.2l0.7,71.3
			c-0.9-0.2-1.9-0.2-2.8-0.2c-0.6,0-1.2,0-1.8,0.1l-1.6-73.7l-1.6,74.4c-0.2,0.1-0.5,0.1-0.7,0.2c-5.7-9.1-15.1-15.6-26.1-17.5
			l6.3-74L386.2,424c-0.4,0-0.8,0-1.2,0c-0.8,0-1.6,0-2.3,0.1l9.5-80.7l-15.2,81.5c-15.6,3.3-27.8,16.1-30.2,32
			c-0.6,0-1.2-0.1-1.9-0.1c-13,0-23.9,9.3-26.2,21.7c-3.9,0.7-7.3,3.1-9.4,6.4c-3.6-2.5-8.3-4.1-13.3-4.1
			c-11.7,0-21.1,8.2-21.1,18.2c0,10.1,9.5,18.2,21.1,18.2c1.7,0,3.3-0.2,4.9-0.5c11.9,8.1,64.3,14.2,127.2,14.2
			c56.7,0,104.9-5,122.5-11.9c2.1,1.3,4.6,2.1,7.2,2.1c7.4,0,13.4-6,13.4-13.4C571.1,500.5,565.1,494.6,557.7,494.6z M367.5,497.7
			c0.1-0.1,0.1-0.2,0.2-0.3c0.2,0.1,0.4,0.2,0.6,0.3C368,497.7,367.8,497.7,367.5,497.7z"/>
		<path class="st17" d="M247.4,540.8h342.8c1.6-2.5,2.5-5.1,2.5-8c0-11.4-14.5-20.6-32.5-20.6c-3,0-5.9,0.3-8.7,0.8
			c-2-11.3-11.7-19.8-23.4-19.8c-1.5,0-2.9,0.1-4.3,0.4c-5.3-11.3-17.4-19.2-31.5-19.2c-12,0-22.5,5.7-28.7,14.3
			c-3-2-6.6-3.2-10.5-3.2c-7.7,0-14.2,4.5-17.1,10.9c-9.3-9.9-23.4-16.2-39-16.2c-19.5,0-36.5,9.8-45,24.1c-3.2-2.1-7-3.3-11.1-3.3
			c-6.1,0-11.7,2.8-15.6,7.2c-7.3-7.2-19.2-12-32.7-12c-22.2,0-40.1,12.8-40.1,28.5c0,3.4,0.9,6.7,2.4,9.7
			C251.6,536.4,248.9,538.5,247.4,540.8z"/>
	</g>
</g>
</svg>
